<mxfile host="app.diagrams.net" agent="Mozilla/5.0 (X11; Ubuntu; Linux x86_64; rv:135.0) Gecko/20100101 Firefox/135.0" version="26.0.14">
  <diagram name="Page-1" id="Dnlq--8Q-EUMLF49Ph0r">
    <mxGraphModel dx="1344" dy="943" grid="1" gridSize="10" guides="1" tooltips="1" connect="1" arrows="1" fold="1" page="1" pageScale="1" pageWidth="850" pageHeight="1100" math="0" shadow="0">
      <root>
        <mxCell id="0" />
        <mxCell id="1" parent="0" />
        <mxCell id="HuBRVUk1wSKWFBPBxIN8-1" value="" style="whiteSpace=wrap;html=1;aspect=fixed;" vertex="1" parent="1">
          <mxGeometry x="230" y="150" width="470" height="470" as="geometry" />
        </mxCell>
        <mxCell id="HuBRVUk1wSKWFBPBxIN8-2" value="Bike Alarm" style="text;html=1;align=center;verticalAlign=middle;whiteSpace=wrap;rounded=0;" vertex="1" parent="1">
          <mxGeometry x="250" y="170" width="60" height="30" as="geometry" />
        </mxCell>
        <mxCell id="HuBRVUk1wSKWFBPBxIN8-3" value="buzzer" style="whiteSpace=wrap;html=1;aspect=fixed;" vertex="1" parent="1">
          <mxGeometry x="590" y="180" width="80" height="80" as="geometry" />
        </mxCell>
        <mxCell id="HuBRVUk1wSKWFBPBxIN8-4" value="&lt;div&gt;auto tranformer&lt;/div&gt;&lt;div&gt;&lt;br&gt;&lt;/div&gt;" style="whiteSpace=wrap;html=1;aspect=fixed;" vertex="1" parent="1">
          <mxGeometry x="460" y="180" width="80" height="80" as="geometry" />
        </mxCell>
        <mxCell id="HuBRVUk1wSKWFBPBxIN8-5" value="&lt;div&gt;amplifier&lt;/div&gt;&lt;div&gt;&lt;br&gt;&lt;/div&gt;" style="whiteSpace=wrap;html=1;aspect=fixed;" vertex="1" parent="1">
          <mxGeometry x="360" y="180" width="80" height="80" as="geometry" />
        </mxCell>
        <mxCell id="HuBRVUk1wSKWFBPBxIN8-6" value="MCU" style="whiteSpace=wrap;html=1;aspect=fixed;" vertex="1" parent="1">
          <mxGeometry x="580" y="320" width="80" height="80" as="geometry" />
        </mxCell>
        <mxCell id="HuBRVUk1wSKWFBPBxIN8-7" value="LORA" style="whiteSpace=wrap;html=1;aspect=fixed;" vertex="1" parent="1">
          <mxGeometry x="460" y="320" width="80" height="80" as="geometry" />
        </mxCell>
        <mxCell id="HuBRVUk1wSKWFBPBxIN8-8" value="BT" style="whiteSpace=wrap;html=1;aspect=fixed;" vertex="1" parent="1">
          <mxGeometry x="360" y="320" width="80" height="80" as="geometry" />
        </mxCell>
        <mxCell id="HuBRVUk1wSKWFBPBxIN8-9" value="433 TX/RX" style="whiteSpace=wrap;html=1;aspect=fixed;" vertex="1" parent="1">
          <mxGeometry x="270" y="320" width="80" height="80" as="geometry" />
        </mxCell>
        <mxCell id="HuBRVUk1wSKWFBPBxIN8-10" value="LION" style="whiteSpace=wrap;html=1;aspect=fixed;" vertex="1" parent="1">
          <mxGeometry x="570" y="460" width="80" height="80" as="geometry" />
        </mxCell>
        <mxCell id="HuBRVUk1wSKWFBPBxIN8-11" value="Solar" style="whiteSpace=wrap;html=1;aspect=fixed;" vertex="1" parent="1">
          <mxGeometry x="450" y="460" width="80" height="80" as="geometry" />
        </mxCell>
        <mxCell id="HuBRVUk1wSKWFBPBxIN8-12" value="Airtag" style="whiteSpace=wrap;html=1;aspect=fixed;" vertex="1" parent="1">
          <mxGeometry x="330" y="450" width="80" height="80" as="geometry" />
        </mxCell>
      </root>
    </mxGraphModel>
  </diagram>
</mxfile>
